<svg width="52" height="52" viewBox="0 0 52 52" fill="none" xmlns="http://www.w3.org/2000/svg">
<g clip-path="url(#clip0_67_8947)">
<path d="M41.8298 9.95445C43.098 11.2736 43.0524 13.3722 41.7282 14.635L30.3251 25.5091C31.6273 24.2795 33.7818 24.339 35.0301 25.6796C36.1688 26.9026 36.0336 28.7685 34.8243 29.9105L33.2734 31.375C34.7842 29.9483 37.4424 30.257 38.5013 32.2882C39.2362 33.698 38.8667 35.3958 37.6988 36.4986L36.0067 38.0965C37.2589 36.914 39.2992 36.9237 40.564 38.118L40.568 38.1218C41.9468 39.4239 41.9562 41.5262 40.5889 42.8175L34.2235 48.8284C29.7184 53.0828 22.3833 53.0537 17.8402 48.7635L12.676 43.8868C9.12863 40.537 8.23585 35.435 10.461 31.229C12.103 28.2468 12.5522 25.2779 11.9448 21.9417C11.7354 20.8788 12.089 19.7932 12.8914 19.0355C14.8179 17.2162 18.1394 18.1372 18.7693 20.6652L19.7693 26.4369L20.9325 25.3385L37.168 9.85334C38.4846 8.59756 40.5688 8.64278 41.8298 9.95445ZM20.7067 8.93623L20.7684 -0.000549316L23.9895 0.0216729L23.928 8.95845L20.7067 8.93623ZM25.6381 9.47934L31.4031 3.72078L33.6797 5.9999L27.9146 11.7586L25.6381 9.47934ZM10.9762 6.24023L13.2476 3.9559L18.9372 9.61345L16.6657 11.8978L10.9762 6.24023Z" fill="url(#paint0_linear_67_8947)"/>
</g>
<defs>
<linearGradient id="paint0_linear_67_8947" x1="26" y1="-0.000549316" x2="26" y2="52.0003" gradientUnits="userSpaceOnUse">
<stop stop-color="#00B59C"/>
<stop offset="1" stop-color="#9CFFAC"/>
</linearGradient>
<clipPath id="clip0_67_8947">
<rect width="52" height="52" fill="white"/>
</clipPath>
</defs>
</svg>
