<svg width="52" height="52" viewBox="0 0 52 52" fill="none" xmlns="http://www.w3.org/2000/svg">
<path d="M51.1689 20.0524L50.068 9.04161C50.0329 8.69172 49.878 8.36459 49.6293 8.11597L43.8841 2.37078C43.6355 2.12205 43.3085 1.96707 42.9585 1.93213L31.9476 0.831091C29.3609 0.572005 26.8228 1.47835 24.9843 3.31673L2.23102 26.0699C0.792289 27.5085 0 29.4214 0 31.456C0 33.4906 0.792289 35.4036 2.23102 36.8422L15.1578 49.769C16.5965 51.2077 18.5094 52 20.544 52C22.5786 52 24.4915 51.2077 25.9301 49.769L48.6834 27.0158C50.5218 25.1773 51.4277 22.6393 51.1689 20.0524ZM41.3705 16.3747C39.784 17.9612 37.2117 17.9612 35.6252 16.3747C34.0387 14.7882 34.0387 12.2159 35.6252 10.6294C37.2117 9.04293 39.784 9.04293 41.3705 10.6294C42.957 12.2159 42.957 14.7882 41.3705 16.3747Z" fill="url(#paint0_linear_67_8923)"/>
<path d="M31.5469 22.4375L32.3084 21.676C32.9033 21.081 32.9033 20.1165 32.3084 19.5215C31.7134 18.9266 30.7489 18.9266 30.1539 19.5215L29.2674 20.4081C29.1283 20.3239 28.986 20.2409 28.8366 20.1607C27.0096 19.1796 24.7606 19.3308 22.9672 20.5553C21.327 21.6753 20.4389 23.4532 20.6494 25.1955C20.7552 26.0713 21.0069 27.0283 21.4572 28.2182L15.9862 33.6893C15.3848 32.9555 15.1157 32.3104 14.8558 31.067C14.6836 30.2435 13.8763 29.7158 13.0528 29.8876C12.2293 30.0597 11.7011 30.867 11.8734 31.6905C12.2861 33.6649 12.8618 34.7443 13.8247 35.8507L12.9182 36.7573C12.3232 37.3522 12.3232 38.3168 12.9182 38.9117C13.5131 39.5067 14.4777 39.5067 15.0726 38.9117L16.0749 37.9094C17.0581 38.5324 18.1666 38.8826 19.3443 38.9324C19.4394 38.9364 19.5345 38.9383 19.6294 38.9383C21.0502 38.9383 22.4562 38.4907 23.6175 37.6637C24.7666 36.8452 25.6059 35.6889 25.9803 34.4075C26.3985 32.9768 26.2452 31.4369 25.537 29.9546C25.3767 29.6192 25.215 29.2748 25.057 28.9271L29.3472 24.6369C29.7552 25.351 29.7582 25.9195 29.7577 25.9597C29.7049 26.7955 30.3372 27.518 31.1738 27.5755C32.0131 27.633 32.7404 26.9994 32.798 26.16C32.8583 25.2844 32.5898 23.8363 31.5469 22.4375ZM22.7878 31.268C23.8614 33.5154 22.3414 34.832 21.8501 35.1819C20.9391 35.8308 19.5962 36.139 18.3338 35.6506L22.7647 31.2196C22.7726 31.2358 22.78 31.2517 22.7878 31.268ZM23.6743 24.8299C23.6019 24.2306 23.9988 23.5403 24.6854 23.0715C25.2628 22.6773 26.1368 22.4015 26.9983 22.6773L23.8711 25.8045C23.7799 25.4618 23.7111 25.1341 23.6743 24.8299ZM38.8567 13.1431C38.2618 12.5481 38.2618 11.5836 38.8567 10.9886L49.3991 0.446154C49.9941 -0.148799 50.9586 -0.148799 51.5536 0.446154C52.1485 1.04111 52.1485 2.00565 51.5536 2.6006L41.0113 13.1431C40.4163 13.7379 39.4517 13.7379 38.8567 13.1431Z" fill="url(#paint1_linear_67_8923)"/>
<defs>
<linearGradient id="paint0_linear_67_8923" x1="8.69446" y1="43.3055" x2="46.7566" y2="5.24337" gradientUnits="userSpaceOnUse">
<stop stop-color="#00B59C"/>
<stop offset="1" stop-color="#9CFFAC"/>
</linearGradient>
<linearGradient id="paint1_linear_67_8923" x1="13.0027" y1="38.9961" x2="51.5531" y2="0.445652" gradientUnits="userSpaceOnUse">
<stop stop-color="#C3FFE8"/>
<stop offset="0.9973" stop-color="#F0FFF4"/>
</linearGradient>
</defs>
</svg>
