<svg width="301" height="58" viewBox="0 0 301 58" fill="none" xmlns="http://www.w3.org/2000/svg">
<mask id="mask0_228_1139" style="mask-type:luminance" maskUnits="userSpaceOnUse" x="0" y="0" width="84" height="58">
<path d="M0.513672 0H83.8306V57.86H0.513672V0Z" fill="white"/>
</mask>
<g mask="url(#mask0_228_1139)">
<mask id="mask1_228_1139" style="mask-type:luminance" maskUnits="userSpaceOnUse" x="0" y="0" width="84" height="58">
<path d="M0.513672 0H83.8306V57.86H0.513672V0Z" fill="white"/>
</mask>
<g mask="url(#mask1_228_1139)">
<path d="M28.7183 29.1197L42.1753 15.6655L55.6294 29.1225L42.1724 42.5767L28.7183 29.1197Z" fill="#8CC63E"/>
</g>
<mask id="mask2_228_1139" style="mask-type:luminance" maskUnits="userSpaceOnUse" x="0" y="0" width="84" height="58">
<path d="M0.513672 0H83.8306V57.86H0.513672V0Z" fill="white"/>
</mask>
<g mask="url(#mask2_228_1139)">
<path fill-rule="evenodd" clip-rule="evenodd" d="M35.2098 9.02914L15.1157 29.1232L34.8328 48.8309L25.8036 57.86L25.6246 57.6904L6.08655 38.1524L5.53991 37.5963C1.03476 33.1037 -0.441828 29.296 1.11015 26.1732C1.92482 24.5921 2.9984 23.1586 4.28638 21.932L26.1806 0L35.2098 9.02914Z" fill="#2C7B5B"/>
</g>
<mask id="mask3_228_1139" style="mask-type:luminance" maskUnits="userSpaceOnUse" x="0" y="0" width="84" height="58">
<path d="M0.513672 0H83.8306V57.86H0.513672V0Z" fill="white"/>
</mask>
<g mask="url(#mask3_228_1139)">
<path fill-rule="evenodd" clip-rule="evenodd" d="M49.1401 9.02914L69.2342 29.1232L49.5266 48.8309L58.5557 57.86L58.7348 57.6904L78.2634 38.1524L78.81 37.5963C83.3152 33.1037 84.7918 29.296 83.2398 26.1732C82.4365 24.5949 81.3758 23.1615 80.1012 21.932L58.1693 0L49.1401 9.02914Z" fill="#589F43"/>
</g>
</g>
<path d="M116.715 15.562V21.5718H109.472V42.7219H101.921V21.5718H94.7559V15.562H116.715ZM143.798 15.562V42.7219H136.247V31.8194H127.04V42.7219H119.489V15.562H127.04V25.771H136.247V15.562H143.798ZM165.255 38.2915H155.624L154.16 42.7219H146.224L156.125 15.562H164.832L174.694 42.7219H166.719L165.255 38.2915ZM163.368 32.5128L160.44 23.7292L157.551 32.5128H163.368ZM179.587 40.7379C177.558 39.2354 176.466 37.0844 176.312 34.285H184.364C184.441 35.2352 184.724 35.9287 185.211 36.3653C185.699 36.8019 186.329 37.0202 187.099 37.0202C187.793 37.0202 188.364 36.8469 188.814 36.5001C189.263 36.1534 189.488 35.6719 189.488 35.0555C189.488 34.2593 189.115 33.6429 188.371 33.2063C187.626 32.7697 186.419 32.2817 184.749 31.7423C182.977 31.1516 181.545 30.5802 180.454 30.028C179.362 29.4758 178.412 28.6668 177.603 27.6009C176.794 26.5351 176.389 25.1418 176.389 23.421C176.389 21.6745 176.826 20.1785 177.699 18.9329C178.572 17.6872 179.78 16.7434 181.32 16.1013C182.861 15.4592 184.608 15.1382 186.56 15.1382C189.719 15.1382 192.242 15.8766 194.13 17.3534C196.018 18.8301 197.026 20.904 197.154 23.5751H188.948C188.923 22.7532 188.672 22.1368 188.197 21.7259C187.722 21.315 187.112 21.1095 186.367 21.1095C185.802 21.1095 185.34 21.2765 184.98 21.6103C184.621 21.9442 184.441 22.4194 184.441 23.0357C184.441 23.5494 184.64 23.9924 185.038 24.3649C185.436 24.7373 185.931 25.0583 186.521 25.328C187.112 25.5976 187.985 25.9379 189.141 26.3489C190.862 26.9396 192.281 27.5239 193.398 28.1017C194.515 28.6796 195.478 29.4886 196.287 30.5288C197.096 31.569 197.501 32.8852 197.501 34.4776C197.501 36.0956 197.096 37.5467 196.287 38.8309C195.478 40.115 194.31 41.1295 192.782 41.8743C191.253 42.6191 189.449 42.9915 187.369 42.9915C184.21 42.9915 181.616 42.2403 179.587 40.7379ZM239.223 15.562L232.558 42.7219H223.274L219.537 26.0792L215.723 42.7219H206.438L199.851 15.562H208.018L211.177 34.1309L215.453 15.562H223.736L227.897 33.9768L231.056 15.562H239.223ZM249.932 21.6103V26.0407H258.6V31.7809H249.932V36.6735H259.756V42.7219H242.382V15.562H259.756V21.6103H249.932ZM271.004 21.6103V26.0407H279.672V31.7809H271.004V36.6735H280.828V42.7219H263.454V15.562H280.828V21.6103H271.004ZM292.076 36.9432H300.513V42.7219H284.526V15.562H292.076V36.9432Z" fill="black"/>
</svg>
