<svg width="1046" height="276" viewBox="0 0 1046 276" fill="none" xmlns="http://www.w3.org/2000/svg">
<rect width="1041.69" height="275.631" fill="white"/>
<path d="M127.392 189.818L121.226 175.561L120.653 174.185C127.903 174.185 142.742 174.314 144.562 174.314C146.836 174.314 172.777 175.561 185.158 171.535C197.539 167.508 203.864 158.049 204.924 156.17C207.631 151.37 210.136 141.108 209.724 134.508C209.311 127.908 208.168 122.728 200.331 112.622C194.06 104.537 181.041 102.066 175.885 101.722H88.8876C88.2341 101.722 87.6409 101.341 87.3699 100.746L73.4095 70.1106C73.1385 69.516 72.5452 69.1344 71.8918 69.1344H61.311C56.9254 69.1344 53.3701 65.5792 53.3701 61.1935C53.3701 56.8079 56.9254 53.2527 61.311 53.2527H83.2302C83.8857 53.2527 84.4804 53.6366 84.7502 54.234L98.3024 84.2406C98.5722 84.838 99.1669 85.2219 99.8224 85.2219H169.903C170.522 84.9469 175.492 85.1465 182.587 85.8066C191.456 86.6316 195.391 89.2603 198.634 91.0789C204.894 94.589 210.741 99.6599 214.041 104.61C217.341 109.56 221.053 115.335 223.735 124.41C226.416 133.486 225.179 144.211 224.972 146.273C224.766 148.336 225.158 153.872 217.96 165.661C214.104 171.976 206.822 178.449 200.428 182.78C188.648 190.76 173.416 190.824 159.187 190.824H128.923C128.257 190.824 127.656 190.429 127.392 189.818Z" fill="#253D4E"/>
<path d="M114.656 116.847H187.597V156.058H114.656V116.847Z" fill="#3BB77E"/>
<path fill-rule="evenodd" clip-rule="evenodd" d="M117.073 168.425L155.175 168.425C170.63 168.426 188.478 168.427 197.819 156.167C202.524 149.991 204.05 144.421 203.952 135.06C203.855 125.7 197.837 117.492 191.374 113.324C184.023 108.584 175.024 107.689 166.278 107.689H90.1473L117.073 168.425ZM116.807 123.792L129.584 152.082H161.882C170.921 152.082 182.424 152.082 185.755 143.687C188.648 136.397 184.773 127.102 177.355 124.557C176.257 124.18 175.045 123.91 173.715 123.792C165.175 123.035 134.146 123.519 116.807 123.792Z" fill="#3BB77E"/>
<path d="M152.206 209.539C152.206 216.485 146.575 222.116 139.629 222.116C132.682 222.116 127.051 216.485 127.051 209.539C127.051 202.592 132.682 196.961 139.629 196.961C146.575 196.961 152.206 202.592 152.206 209.539Z" fill="#253D4E"/>
<path d="M145.844 209.801C145.844 213.249 143.049 216.044 139.601 216.044C136.153 216.044 133.358 213.249 133.358 209.801C133.358 206.353 136.153 203.558 139.601 203.558C143.049 203.558 145.844 206.353 145.844 209.801Z" fill="white"/>
<path d="M142.43 209.538C142.43 211.085 141.176 212.338 139.63 212.338C138.084 212.338 136.83 211.085 136.83 209.538C136.83 207.992 138.084 206.739 139.63 206.739C141.176 206.739 142.43 207.992 142.43 209.538Z" fill="#3BB77E"/>
<path d="M201.792 209.801C201.792 216.747 196.161 222.378 189.214 222.378C182.268 222.378 176.637 216.747 176.637 209.801C176.637 202.855 182.268 197.223 189.214 197.223C196.161 197.223 201.792 202.855 201.792 209.801Z" fill="#253D4E"/>
<path d="M195.456 209.801C195.456 213.249 192.661 216.044 189.213 216.044C185.765 216.044 182.969 213.249 182.969 209.801C182.969 206.353 185.765 203.558 189.213 203.558C192.661 203.558 195.456 206.353 195.456 209.801Z" fill="white"/>
<path d="M192.012 209.538C192.012 211.085 190.759 212.338 189.212 212.338C187.666 212.338 186.412 211.085 186.412 209.538C186.412 207.992 187.666 206.739 189.212 206.739C190.759 206.739 192.012 207.992 192.012 209.538Z" fill="#3BB77E"/>
<path d="M309.29 150.509H265.465V51.8671H309.29C342.687 51.8671 364.248 71.1727 364.248 101.047C364.248 131.203 342.687 150.509 309.29 150.509ZM265.465 71.7364V130.64L308.304 130.64C327.186 130.64 339.446 119.084 339.446 101.188C339.446 83.1506 327.186 71.7364 308.163 71.7364L265.465 71.7364Z" fill="#3BB77E"/>
<path d="M404.06 150.509H379.822V51.8671H404.06V150.509Z" fill="#3BB77E"/>
<path d="M491.646 99.3561C505.174 102.738 513.207 111.052 513.207 123.735C513.207 140.363 499.115 150.509 475.723 150.509H423.583V51.8671H474.173C495.874 51.8671 508.979 61.0267 508.979 76.8094C508.979 87.8009 502.779 95.6922 491.646 99.3561ZM469.522 71.3136L423.583 71.3136V92.0284L470.509 92.0284C479.387 92.0284 485.023 89.4919 485.023 82.0233C485.023 74.5547 479.105 71.3136 469.522 71.3136ZM423.583 131.062L472.341 131.062C482.769 131.062 489.11 127.68 489.11 120.071C489.11 112.039 482.769 109.22 474.877 109.22L423.583 109.22V131.062Z" fill="#3BB77E"/>
<path d="M549.793 150.509H525.555V51.8671H549.793V150.509Z" fill="#3BB77E"/>
<path d="M665.986 50.1761C687.405 50.1761 703.611 66.6633 703.611 93.2966V150.509H679.373V93.7194C679.373 80.755 672.75 74.2729 663.308 74.2729C654.008 74.2729 647.385 80.755 647.385 93.7194V150.509H623.147V93.8603C623.147 81.0369 616.524 74.2729 607.223 74.2729C597.782 74.2729 591.159 80.755 591.159 93.7194V150.509H566.921V93.2966C566.921 66.6633 582.845 50.1761 604.546 50.1761C617.229 50.1761 627.375 55.6718 634.139 64.8314C641.607 55.6718 652.317 50.1761 665.986 50.1761Z" fill="#3BB77E"/>
<path d="M764.091 50.0352C791.006 50.0352 809.748 67.3679 809.748 94.1421V150.509H785.793V126.13H742.813V150.509H718.434V94.1421C718.434 67.3679 737.176 50.0352 764.091 50.0352ZM742.813 94.1421V105.415H785.793V94.1421C785.793 79.6277 776.774 71.0318 764.091 71.0318C751.55 71.0318 742.813 79.6277 742.813 94.1421Z" fill="#3BB77E"/>
<path d="M901.757 150.509H826.93V51.8671H851.027V129.935H901.757V150.509Z" fill="#3BB77E"/>
<path d="M988.316 150.509H913.49V51.8671H937.586V129.935H988.316V150.509Z" fill="#3BB77E"/>
<path d="M630.594 175.825L612.142 224.96H602.81L584.287 175.825H592.912L607.476 216.688L622.11 175.825H630.594Z" fill="#ADADAD"/>
<path d="M641.434 180.845C639.973 180.845 638.748 180.35 637.758 179.36C636.768 178.37 636.273 177.145 636.273 175.684C636.273 174.223 636.768 172.997 637.758 172.008C638.748 171.018 639.973 170.523 641.434 170.523C642.848 170.523 644.05 171.018 645.04 172.008C646.03 172.997 646.525 174.223 646.525 175.684C646.525 177.145 646.03 178.37 645.04 179.36C644.05 180.35 642.848 180.845 641.434 180.845ZM645.393 186.006V224.96H637.334V186.006H645.393Z" fill="#ADADAD"/>
<path d="M664.034 191.661C665.213 189.682 666.768 188.15 668.7 187.066C670.68 185.935 673.013 185.369 675.699 185.369V193.712H673.649C670.491 193.712 668.088 194.513 666.438 196.115C664.836 197.718 664.034 200.499 664.034 204.458V224.96H655.975V186.006H664.034V191.661Z" fill="#ADADAD"/>
<path d="M692.51 192.581V214.143C692.51 215.604 692.84 216.665 693.5 217.325C694.207 217.937 695.385 218.244 697.035 218.244H701.984V224.96H695.621C691.992 224.96 689.211 224.112 687.279 222.415C685.346 220.718 684.38 217.961 684.38 214.143V192.581H679.785V186.006H684.38V176.32H692.51V186.006H701.984V192.581H692.51Z" fill="#ADADAD"/>
<path d="M744.69 186.006V224.96H736.631V220.365C735.358 221.967 733.685 223.24 731.611 224.182C729.584 225.078 727.416 225.525 725.107 225.525C722.043 225.525 719.286 224.889 716.835 223.617C714.432 222.344 712.523 220.459 711.109 217.961C709.742 215.463 709.059 212.446 709.059 208.912V186.006H717.047V207.71C717.047 211.197 717.919 213.884 719.663 215.769C721.407 217.607 723.787 218.526 726.804 218.526C729.82 218.526 732.2 217.607 733.944 215.769C735.735 213.884 736.631 211.197 736.631 207.71V186.006H744.69Z" fill="#ADADAD"/>
<path d="M752.637 205.306C752.637 201.394 753.439 197.93 755.041 194.914C756.691 191.897 758.906 189.564 761.687 187.914C764.515 186.218 767.625 185.369 771.019 185.369C774.082 185.369 776.745 185.982 779.008 187.208C781.317 188.386 783.155 189.87 784.522 191.661V186.006H792.652V224.96H784.522V219.163C783.155 221.001 781.293 222.533 778.937 223.758C776.58 224.983 773.894 225.596 770.877 225.596C767.531 225.596 764.467 224.748 761.687 223.051C758.906 221.307 756.691 218.904 755.041 215.84C753.439 212.729 752.637 209.218 752.637 205.306ZM784.522 205.447C784.522 202.761 783.956 200.428 782.825 198.448C781.741 196.469 780.304 194.961 778.513 193.924C776.722 192.887 774.789 192.368 772.715 192.368C770.642 192.368 768.709 192.887 766.918 193.924C765.127 194.914 763.666 196.398 762.535 198.378C761.451 200.31 760.909 202.62 760.909 205.306C760.909 207.993 761.451 210.349 762.535 212.376C763.666 214.402 765.127 215.958 766.918 217.042C768.756 218.079 770.689 218.597 772.715 218.597C774.789 218.597 776.722 218.079 778.513 217.042C780.304 216.005 781.741 214.497 782.825 212.517C783.956 210.491 784.522 208.134 784.522 205.447Z" fill="#ADADAD"/>
<path d="M811.297 172.644V224.96H803.238V172.644H811.297Z" fill="#ADADAD"/>
<path d="M887.399 185.369C890.462 185.369 893.196 186.006 895.6 187.278C898.05 188.551 899.959 190.436 901.326 192.934C902.74 195.432 903.447 198.448 903.447 201.983V224.96H895.458V203.185C895.458 199.697 894.586 197.034 892.842 195.196C891.099 193.311 888.718 192.368 885.702 192.368C882.686 192.368 880.282 193.311 878.491 195.196C876.747 197.034 875.875 199.697 875.875 203.185V224.96H867.886V203.185C867.886 199.697 867.014 197.034 865.27 195.196C863.527 193.311 861.146 192.368 858.13 192.368C855.114 192.368 852.71 193.311 850.919 195.196C849.175 197.034 848.303 199.697 848.303 203.185V224.96H840.244V186.006H848.303V190.46C849.623 188.857 851.296 187.608 853.323 186.713C855.349 185.817 857.517 185.369 859.827 185.369C862.937 185.369 865.718 186.029 868.169 187.349C870.62 188.669 872.505 190.577 873.825 193.075C875.003 190.719 876.841 188.857 879.339 187.49C881.837 186.076 884.524 185.369 887.399 185.369Z" fill="#ADADAD"/>
<path d="M911.016 205.306C911.016 201.394 911.817 197.93 913.42 194.914C915.069 191.897 917.285 189.564 920.065 187.914C922.893 186.218 926.004 185.369 929.397 185.369C932.461 185.369 935.124 185.982 937.386 187.208C939.696 188.386 941.534 189.87 942.901 191.661V186.006H951.031V224.96H942.901V219.163C941.534 221.001 939.672 222.533 937.315 223.758C934.959 224.983 932.272 225.596 929.256 225.596C925.91 225.596 922.846 224.748 920.065 223.051C917.285 221.307 915.069 218.904 913.42 215.84C911.817 212.729 911.016 209.218 911.016 205.306ZM942.901 205.447C942.901 202.761 942.335 200.428 941.204 198.448C940.12 196.469 938.682 194.961 936.891 193.924C935.1 192.887 933.168 192.368 931.094 192.368C929.02 192.368 927.088 192.887 925.297 193.924C923.506 194.914 922.045 196.398 920.914 198.378C919.83 200.31 919.288 202.62 919.288 205.306C919.288 207.993 919.83 210.349 920.914 212.376C922.045 214.402 923.506 215.958 925.297 217.042C927.135 218.079 929.067 218.597 931.094 218.597C933.168 218.597 935.1 218.079 936.891 217.042C938.682 216.005 940.12 214.497 941.204 212.517C942.335 210.491 942.901 208.134 942.901 205.447Z" fill="#ADADAD"/>
<path d="M969.676 172.644V224.96H961.617V172.644H969.676Z" fill="#ADADAD"/>
<path d="M988.317 172.644V224.96H980.257V172.644H988.317Z" fill="#ADADAD"/>
<path d="M1009.11 8V12.1482H1001.06V39H996.096V12.1482H988V8H1009.11Z" fill="#3BB77E"/>
<path d="M1046 8V39H1041.04V17.7683L1031.81 39H1028.37L1019.1 17.7683V39H1014.14V8H1019.49L1030.11 32.3094L1040.69 8H1046Z" fill="#3BB77E"/>
</svg>
